<svg xmlns="http://www.w3.org/2000/svg" width="1600" height="720" viewBox="0 0 1600 720" role="img" aria-labelledby="title desc">
  <title id="title">LMX Content CMS Add Playlist Screenshot</title>
  <desc id="desc">Playlist Manager page with Add PlayList modal showing playlist name, duration, type, location, play type, tags, description, and operational settings.</desc>
  <rect width="1600" height="720" fill="#dfe8f4"/>
  <rect width="1600" height="58" fill="#d9e2f0"/>
  <rect y="58" width="1600" height="34" fill="#c9d5e5"/>
  <g transform="translate(24 7)">
    <path d="M0 26 C18 2 37 2 55 26 C73 50 91 50 110 26 C128 2 146 2 165 26" fill="none" stroke="#1e7fc8" stroke-width="9" stroke-linecap="round"/>
    <text x="94" y="28" font-family="Arial, sans-serif" font-size="19" font-weight="700" fill="#444">MovingWalls</text>
    <text x="0" y="48" font-family="Arial, sans-serif" font-size="9" fill="#555" letter-spacing="3">moving walls</text>
  </g>
  <g font-family="Arial, sans-serif" font-size="12" font-weight="700" fill="#333">
    <text x="22" y="80">Dashboard</text><text x="86" y="80">Network</text><text x="156" y="80">Device Manager</text><text x="268" y="80">Setup</text><text x="323" y="80">Main Storage</text><text x="428" y="80">Scheduled Content</text><text x="562" y="80">View History</text><text x="665" y="80">Content Approval</text>
  </g>
  <rect x="0" y="92" width="1600" height="628" fill="#eaf3ff"/>
  <rect x="0" y="92" width="1600" height="628" fill="#111" opacity=".48"/>
  <text x="24" y="148" font-family="Arial" font-size="16" fill="#dfe8f2">Tenant (MO)</text>
  <text x="92" y="148" font-family="Arial" font-size="24" font-weight="700" fill="#111">Play List Manager</text>
  <rect x="12" y="172" width="1576" height="374" fill="#fff" opacity=".55"/>
  <rect x="12" y="172" width="1576" height="28" fill="#0c5366"/>
  <g font-family="Arial" font-size="12" fill="#111" opacity=".72">
    <text x="52" y="232">1</text><text x="98" y="226">Playlist Name:</text><text x="98" y="242" font-weight="700">Sanchit</text><text x="252" y="226">Duration:</text><text x="252" y="242" font-weight="700">100</text><text x="364" y="226">Location Name:</text><text x="364" y="242" font-weight="700">Sanchit</text>
    <text x="52" y="274">2</text><text x="98" y="268">Playlist Name:</text><text x="98" y="284" font-weight="700">Home PC IJOK</text><text x="252" y="268">Duration:</text><text x="252" y="284" font-weight="700">100</text><text x="364" y="268">Location Name:</text><text x="364" y="284" font-weight="700">IJOK</text>
    <text x="52" y="316">3</text><text x="98" y="310">Playlist Name:</text><text x="98" y="326" font-weight="700">Lily Test</text><text x="252" y="310">Duration:</text><text x="252" y="326" font-weight="700">100</text><text x="364" y="310">Location Name:</text><text x="364" y="326" font-weight="700">Lily Laptop</text>
    <text x="52" y="358">4</text><text x="98" y="352">Playlist Name:</text><text x="98" y="368" font-weight="700">Nkosilathi PC</text><text x="252" y="352">Duration:</text><text x="252" y="368" font-weight="700">100</text><text x="364" y="352">Location Name:</text><text x="364" y="368" font-weight="700">Nkosilathi PC</text>
    <text x="1220" y="226">Sub Zone:</text><text x="1220" y="242" font-weight="700">Selangor</text><text x="1220" y="268">Sub Zone:</text><text x="1220" y="284" font-weight="700">IJOK</text><text x="1220" y="310">Sub Zone:</text><text x="1220" y="326" font-weight="700">Hanoi</text>
  </g>
  <g transform="translate(600 24)">
    <rect x="0" y="0" width="400" height="470" rx="3" fill="#fff"/>
    <rect width="400" height="40" rx="3" fill="#278da3"/>
    <text x="32" y="26" font-family="Arial" font-size="15" font-weight="700" fill="#fff">Add PlayList</text>
    <text x="382" y="26" font-family="Arial" font-size="16" font-weight="700" fill="#fff">x</text>
    <rect x="10" y="52" width="50" height="28" fill="#e6f1fb" stroke="#b9cfe2"/>
    <text x="20" y="71" font-family="Arial" font-size="12" fill="#24506a">PlayList</text>
    <rect x="10" y="80" width="380" height="370" fill="#fff" stroke="#c3cbd6"/>
    <g font-family="Arial" font-size="11" font-weight="700" fill="#314050">
      <text x="22" y="108">Play List Name*</text><text x="210" y="108">Duration (Seconds) *</text><text x="22" y="164">Type</text><text x="22" y="196">Location*</text><text x="22" y="252">Play Type *</text><text x="22" y="306">Tags</text><text x="22" y="360">Description</text>
    </g>
    <rect x="22" y="118" width="170" height="28" rx="3" fill="#fff" stroke="#ccd4df"/><text x="32" y="136" font-family="Arial" font-size="10" fill="#9ca8b5">Play List Name</text>
    <rect x="210" y="118" width="105" height="28" rx="3" fill="#fff" stroke="#ccd4df"/><text x="220" y="136" font-family="Arial" font-size="10" fill="#777">100</text>
    <g font-family="Arial" font-size="11" fill="#444"><rect x="92" y="160" width="8" height="8" fill="#fff" stroke="#222"/><text x="106" y="168">Fixed</text><rect x="152" y="160" width="8" height="8" fill="#fff" stroke="#222"/><text x="166" y="168">Prime</text><rect x="212" y="160" width="8" height="8" fill="#fff" stroke="#222"/><text x="226" y="168">Dependent</text></g>
    <rect x="22" y="206" width="356" height="28" rx="3" fill="#fff" stroke="#ccd4df"/><text x="32" y="224" font-family="Arial" font-size="10" fill="#777">Select Location</text>
    <g font-family="Arial" font-size="11" fill="#444"><rect x="92" y="248" width="8" height="8" fill="#fff" stroke="#222"/><path d="M93 252l3 3 7-8" fill="none" stroke="#278da3" stroke-width="2"/><text x="106" y="256">Timer</text></g>
    <rect x="22" y="316" width="356" height="28" rx="3" fill="#fff" stroke="#ccd4df"/><text x="32" y="334" font-family="Arial" font-size="10" fill="#777">Enter Tag</text>
    <rect x="22" y="370" width="356" height="60" rx="3" fill="#fff" stroke="#ccd4df"/><text x="32" y="388" font-family="Arial" font-size="10" fill="#aaa">Description</text>
    <g font-family="Arial" font-size="12" fill="#53606d"><rect x="22" y="446" width="9" height="9" fill="#fff" stroke="#777"/><text x="38" y="455">Media Partner</text><rect x="112" y="446" width="9" height="9" fill="#2b8bd1"/><text x="128" y="455">Status</text><rect x="202" y="446" width="9" height="9" fill="#fff" stroke="#777"/><text x="218" y="455">Display timer</text></g>
    <rect x="290" y="420" width="46" height="28" rx="3" fill="#ff2548"/><text x="302" y="438" font-family="Arial" font-size="12" font-weight="700" fill="#fff">Cancel</text>
    <rect x="340" y="420" width="38" height="28" rx="3" fill="#5c8798"/><text x="350" y="438" font-family="Arial" font-size="12" font-weight="700" fill="#fff">Save</text>
  </g>
</svg>
