<svg xmlns="http://www.w3.org/2000/svg" width="1600" height="720" viewBox="0 0 1600 720" role="img" aria-labelledby="title desc">
  <title id="title">LMX Content CMS Add Location Screenshot</title>
  <desc id="desc">Location page with Add Location modal showing location name, country, region, timezone, zone, sub zone, tag, description, and status.</desc>
  <rect width="1600" height="720" fill="#dfe8f4"/>
  <rect width="1600" height="58" fill="#d9e2f0"/>
  <rect y="58" width="1600" height="34" fill="#c9d5e5"/>
  <g transform="translate(24 7)">
    <path d="M0 26 C18 2 37 2 55 26 C73 50 91 50 110 26 C128 2 146 2 165 26" fill="none" stroke="#1e7fc8" stroke-width="9" stroke-linecap="round"/>
    <text x="94" y="28" font-family="Arial, sans-serif" font-size="19" font-weight="700" fill="#444">MovingWalls</text>
    <text x="0" y="48" font-family="Arial, sans-serif" font-size="9" fill="#555" letter-spacing="3">moving walls</text>
  </g>
  <g font-family="Arial, sans-serif" font-size="12" font-weight="700" fill="#333">
    <text x="22" y="80">Dashboard</text>
    <text x="86" y="80">Network</text>
    <text x="156" y="80">Device Manager</text>
    <text x="268" y="80">Setup</text>
    <text x="323" y="80">Main Storage</text>
    <text x="428" y="80">Scheduled Content</text>
    <text x="562" y="80">View History</text>
    <text x="665" y="80">Content Approval</text>
  </g>
  <rect x="0" y="92" width="1600" height="628" fill="#eaf3ff"/>
  <rect x="0" y="92" width="1600" height="628" fill="#111" opacity=".48"/>
  <text x="24" y="148" font-family="Arial" font-size="16" fill="#dfe8f2">Tenant (MO)</text>
  <text x="92" y="148" font-family="Arial" font-size="24" font-weight="700" fill="#111">Location</text>
  <rect x="14" y="174" width="1572" height="372" fill="#fff" opacity=".55"/>
  <rect x="14" y="174" width="1572" height="28" fill="#0c5366"/>
  <g font-family="Arial" font-size="12" fill="#111" opacity=".72">
    <text x="54" y="232">1</text><text x="98" y="226">Location Name:</text><text x="98" y="242" font-weight="700">Sanchit</text><text x="336" y="226">Country Name:</text><text x="336" y="242" font-weight="700">Malaysia</text>
    <text x="54" y="274">2</text><text x="98" y="268">Location Name:</text><text x="98" y="284" font-weight="700">IJOK</text><text x="336" y="268">Country Name:</text><text x="336" y="284" font-weight="700">Malaysia</text>
    <text x="54" y="316">3</text><text x="98" y="310">Location Name:</text><text x="98" y="326" font-weight="700">Nkosilathi PC</text><text x="336" y="310">Country Name:</text><text x="336" y="326" font-weight="700">South Africa</text>
    <text x="54" y="358">4</text><text x="98" y="352">Location Name:</text><text x="98" y="368" font-weight="700">Lily Laptop</text><text x="336" y="352">Country Name:</text><text x="336" y="368" font-weight="700">Vietnam</text>
    <text x="1064" y="226">Sub Zone:</text><text x="1064" y="242" font-weight="700">Selangor</text><text x="1064" y="268">Sub Zone:</text><text x="1064" y="284" font-weight="700">IJOK</text><text x="1064" y="310">Sub Zone:</text><text x="1064" y="326" font-weight="700">Johannesburg</text>
  </g>
  <g transform="translate(602 26)">
    <rect x="0" y="0" width="400" height="372" rx="3" fill="#fff"/>
    <rect width="400" height="40" rx="3" fill="#278da3"/>
    <text x="32" y="26" font-family="Arial" font-size="15" font-weight="700" fill="#fff">Add Location</text>
    <text x="382" y="26" font-family="Arial" font-size="16" font-weight="700" fill="#fff">x</text>
    <g font-family="Arial" font-size="11" font-weight="700" fill="#314050">
      <text x="20" y="78">Location Name*</text><text x="210" y="78">Country *</text><text x="20" y="124">Region *</text><text x="210" y="124">Time Zone *</text><text x="20" y="170">Zone Name *</text><text x="210" y="170">Sub Zone Name *</text><text x="20" y="216">Tag</text><text x="20" y="260">Description</text>
    </g>
    <rect x="20" y="88" width="170" height="28" rx="3" fill="#fff" stroke="#ccd4df"/><text x="30" y="106" font-family="Arial" font-size="10" fill="#9ca8b5">Location Name</text>
    <rect x="210" y="88" width="170" height="28" rx="3" fill="#fff" stroke="#ccd4df"/><text x="220" y="106" font-family="Arial" font-size="10" fill="#777">Select Country</text><path d="M366 99l5 5 5-5" fill="none" stroke="#777" stroke-width="2"/>
    <rect x="20" y="134" width="170" height="28" rx="3" fill="#fff" stroke="#ccd4df"/><text x="30" y="152" font-family="Arial" font-size="10" fill="#9ca8b5">Region Name</text>
    <rect x="210" y="134" width="170" height="28" rx="3" fill="#fff" stroke="#ccd4df"/><text x="220" y="152" font-family="Arial" font-size="10" fill="#777">Select Timezone</text><path d="M366 145l5 5 5-5" fill="none" stroke="#777" stroke-width="2"/>
    <rect x="20" y="180" width="170" height="28" rx="3" fill="#fff" stroke="#ccd4df"/><text x="30" y="198" font-family="Arial" font-size="10" fill="#9ca8b5">Zone Name</text>
    <rect x="210" y="180" width="170" height="28" rx="3" fill="#fff" stroke="#ccd4df"/><text x="220" y="198" font-family="Arial" font-size="10" fill="#9ca8b5">Sub Zone Name</text>
    <rect x="20" y="226" width="360" height="28" rx="3" fill="#fff" stroke="#ccd4df"/><text x="30" y="244" font-family="Arial" font-size="10" fill="#777">Enter Tag</text>
    <rect x="20" y="270" width="360" height="60" rx="3" fill="#fff" stroke="#ccd4df"/><text x="30" y="288" font-family="Arial" font-size="10" fill="#9ca8b5">Description</text>
    <rect x="20" y="344" width="9" height="9" fill="#2b8bd1"/><text x="36" y="353" font-family="Arial" font-size="12" font-weight="700" fill="#53606d">Status</text>
    <rect x="295" y="336" width="46" height="28" rx="3" fill="#ff2548"/><text x="307" y="354" font-family="Arial" font-size="12" font-weight="700" fill="#fff">Cancel</text>
    <rect x="346" y="336" width="34" height="28" rx="3" fill="#5c8798"/><text x="355" y="354" font-family="Arial" font-size="12" font-weight="700" fill="#fff">Add</text>
  </g>
</svg>
