<svg xmlns="http://www.w3.org/2000/svg" width="1600" height="720" viewBox="0 0 1600 720" role="img" aria-labelledby="title desc">
  <title id="title">LMX Content CMS Add Network Screenshot</title>
  <desc id="desc">Network page with Add Network modal showing network fields, device settings, default values, and operational options.</desc>
  <rect width="1600" height="720" fill="#dfe8f4"/>
  <rect width="1600" height="58" fill="#d9e2f0"/>
  <rect y="58" width="1600" height="34" fill="#c9d5e5"/>
  <g transform="translate(24 7)">
    <path d="M0 26 C18 2 37 2 55 26 C73 50 91 50 110 26 C128 2 146 2 165 26" fill="none" stroke="#1e7fc8" stroke-width="9" stroke-linecap="round"/>
    <text x="94" y="28" font-family="Arial, sans-serif" font-size="19" font-weight="700" fill="#444">MovingWalls</text>
    <text x="0" y="48" font-family="Arial, sans-serif" font-size="9" fill="#555" letter-spacing="3">moving walls</text>
  </g>
  <g font-family="Arial, sans-serif" font-size="12" font-weight="700" fill="#333">
    <text x="22" y="80">Dashboard</text>
    <text x="86" y="80">Network</text>
    <text x="156" y="80">Device Manager</text>
    <text x="268" y="80">Setup</text>
    <text x="323" y="80">Main Storage</text>
    <text x="428" y="80">Scheduled Content</text>
    <text x="562" y="80">View History</text>
  </g>
  <rect x="0" y="92" width="1600" height="628" fill="#eaf3ff"/>
  <rect x="0" y="92" width="1600" height="628" fill="#111" opacity=".48"/>
  <text x="24" y="148" font-family="Arial" font-size="16" fill="#dfe8f2">Tenant (MO)</text>
  <text x="92" y="148" font-family="Arial" font-size="24" font-weight="700" fill="#111">Network</text>
  <rect x="14" y="174" width="1572" height="360" fill="#fff" opacity=".55"/>
  <rect x="14" y="174" width="1572" height="28" fill="#0c5366"/>
  <g font-family="Arial" font-size="12" fill="#111" opacity=".72">
    <text x="54" y="232">1</text>
    <text x="104" y="232" fill="#0065a8">Ampang Bus 1</text>
    <text x="54" y="268">2</text>
    <text x="104" y="268" fill="#0065a8">Ashwini Network</text>
    <text x="54" y="304">3</text>
    <text x="104" y="304" fill="#0065a8">Bangsar Train Station</text>
    <text x="54" y="340">4</text>
    <text x="104" y="340" fill="#0065a8">Campaign Layout</text>
    <text x="54" y="376">5</text>
    <text x="104" y="376" fill="#0065a8">duduzile</text>
    <text x="1228" y="232">10</text>
    <text x="1228" y="268">10</text>
    <text x="1228" y="304">10</text>
    <text x="1228" y="340">10</text>
    <text x="1228" y="376">10</text>
  </g>
  <g transform="translate(500 26)">
    <rect x="0" y="0" width="600" height="548" rx="3" fill="#fff"/>
    <rect width="600" height="40" rx="3" fill="#278da3"/>
    <text x="32" y="26" font-family="Arial" font-size="15" font-weight="700" fill="#fff">Add Network</text>
    <rect x="10" y="40" width="580" height="498" rx="14" fill="#fff" stroke="#d9dfe7"/>
    <g font-family="Arial" font-size="11" font-weight="700" fill="#314050">
      <text x="22" y="72">Network *</text>
      <text x="310" y="72">Description</text>
      <text x="22" y="182">Tags</text>
      <text x="22" y="228">Device Settings</text>
      <text x="310" y="228">Default Values</text>
    </g>
    <rect x="22" y="82" width="270" height="28" rx="3" fill="#fff" stroke="#ccd4df"/>
    <text x="32" y="100" font-family="Arial" font-size="10" fill="#9ca8b5">Network Name</text>
    <rect x="310" y="82" width="270" height="62" rx="3" fill="#fff" stroke="#ccd4df"/>
    <text x="320" y="100" font-family="Arial" font-size="10" fill="#9ca8b5">Description</text>
    <rect x="22" y="192" width="270" height="28" rx="3" fill="#fff" stroke="#ccd4df"/>
    <text x="32" y="210" font-family="Arial" font-size="10" fill="#9ca8b5">Enter Tag</text>
    <g transform="translate(22 240)">
      <rect width="270" height="132" fill="#f4f7fb" stroke="#c3cbd6"/>
      <text x="12" y="24" font-family="Arial" font-size="11" font-weight="700" fill="#526070">Start Time*</text>
      <text x="78" y="24" font-family="Arial" font-size="11" font-weight="700" fill="#526070">End Time*</text>
      <text x="146" y="24" font-family="Arial" font-size="11" font-weight="700" fill="#526070">Volume Range (40%)</text>
      <rect x="12" y="34" width="46" height="26" rx="3" fill="#fff" stroke="#d6dce5"/>
      <text x="22" y="51" font-family="Arial" font-size="10" fill="#777">00:00</text>
      <rect x="78" y="34" width="46" height="26" rx="3" fill="#fff" stroke="#d6dce5"/>
      <text x="88" y="51" font-family="Arial" font-size="10" fill="#777">00:00</text>
      <line x1="146" y1="52" x2="250" y2="52" stroke="#4d6072" stroke-width="5"/>
      <circle cx="186" cy="52" r="5" fill="#7890a8"/>
      <text x="12" y="86" font-family="Arial" font-size="11" font-weight="700" fill="#526070">Playlog Interval (min)</text>
      <text x="146" y="86" font-family="Arial" font-size="11" font-weight="700" fill="#526070">Screen Brightness (50%)</text>
      <rect x="12" y="96" width="114" height="26" rx="3" fill="#fff" stroke="#d6dce5"/>
      <text x="22" y="113" font-family="Arial" font-size="10" fill="#777">10</text>
      <line x1="146" y1="112" x2="246" y2="112" stroke="#4d6072" stroke-width="5"/>
      <circle cx="196" cy="112" r="5" fill="#7890a8"/>
    </g>
    <g transform="translate(310 240)">
      <rect width="270" height="178" fill="#f4f7fb" stroke="#c3cbd6"/>
      <text x="12" y="24" font-family="Arial" font-size="11" font-weight="700" fill="#24506a">Schedule Types</text>
      <text x="144" y="24" font-family="Arial" font-size="11" font-weight="700" fill="#24506a">Brands</text>
      <rect x="12" y="34" width="114" height="26" rx="3" fill="#fff" stroke="#d6dce5"/>
      <text x="22" y="51" font-family="Arial" font-size="10" fill="#777">Client</text>
      <rect x="144" y="34" width="114" height="26" rx="3" fill="#fff" stroke="#d6dce5"/>
      <text x="154" y="51" font-family="Arial" font-size="10" fill="#777">Select Brands</text>
      <text x="12" y="84" font-family="Arial" font-size="11" font-weight="700" fill="#24506a">Start Date</text>
      <text x="104" y="84" font-family="Arial" font-size="11" font-weight="700" fill="#24506a">Playlist</text>
      <rect x="12" y="94" width="68" height="26" rx="3" fill="#fff" stroke="#d6dce5"/>
      <text x="22" y="111" font-family="Arial" font-size="10" fill="#777">Today's Date</text>
      <rect x="104" y="94" width="92" height="26" rx="3" fill="#fff" stroke="#d6dce5"/>
      <text x="114" y="111" font-family="Arial" font-size="10" fill="#777">Select playlist</text>
      <text x="12" y="140" font-family="Arial" font-size="11" font-weight="700" fill="#24506a">Duration</text>
      <rect x="12" y="150" width="92" height="26" rx="3" fill="#fff" stroke="#d6dce5"/>
      <text x="22" y="167" font-family="Arial" font-size="10" fill="#aaa">Duration</text>
    </g>
    <g font-family="Arial" font-size="12" font-weight="700" fill="#53606d">
      <rect x="32" y="444" width="9" height="9" fill="#2b8bd1"/>
      <text x="48" y="453">Play Log</text>
      <rect x="142" y="444" width="9" height="9" fill="#2b8bd1"/>
      <text x="158" y="453">Background Download</text>
      <rect x="332" y="444" width="9" height="9" fill="#2b8bd1"/>
      <text x="348" y="453">Active</text>
    </g>
    <rect x="496" y="478" width="46" height="28" rx="3" fill="#ff2548"/>
    <text x="508" y="496" font-family="Arial" font-size="12" font-weight="700" fill="#fff">Cancel</text>
    <rect x="546" y="478" width="36" height="28" rx="3" fill="#5c8798"/>
    <text x="556" y="496" font-family="Arial" font-size="12" font-weight="700" fill="#fff">Add</text>
  </g>
</svg>
